<svg width="16" height="16" viewBox="0 0 100 100" fill="none" xmlns="http://www.w3.org/2000/svg">
<path d="M100 50.0089C100 44.1952 91.704 38.6856 78.9849 35.269C81.9201 23.892 80.6156 14.8405 74.8675 11.9426C73.5426 11.2629 71.9935 10.9409 70.3017 10.9409V14.93C71.2393 14.93 71.9935 15.091 72.6254 15.3951C75.3975 16.7904 76.6001 22.1032 75.6625 28.9365C75.4382 30.618 75.0713 32.389 74.6229 34.1957C70.6278 33.337 66.2658 32.6752 61.6796 32.2459C58.9278 28.9365 56.0742 25.9313 53.2002 23.3017C59.8451 17.8816 66.0824 14.9121 70.3221 14.9121V10.923C64.7167 10.923 57.3787 14.4291 49.9592 20.5111C42.5397 14.4649 35.2018 10.9946 29.5964 10.9946V14.9836C33.8157 14.9836 40.0734 17.9352 46.7183 23.3196C43.8647 25.9492 41.011 28.9365 38.3 32.2459C33.6934 32.6752 29.3314 33.337 25.3363 34.2136C24.8675 32.4247 24.521 30.6896 24.2764 29.026C23.3184 22.1926 24.5006 16.8798 27.2523 15.4666C27.8638 15.1446 28.6588 15.0015 29.5964 15.0015V11.0124C27.8842 11.0124 26.3351 11.3344 24.9898 12.0142C19.2621 14.9121 17.978 23.9457 20.9335 35.2869C8.2552 38.7214 0 44.2131 0 50.0089C0 55.8226 8.29596 61.3322 21.0151 64.7489C18.0799 76.1259 19.3844 85.1773 25.1325 88.0752C26.4574 88.755 28.0065 89.077 29.7187 89.077C35.3241 89.077 42.662 85.5709 50.0815 79.4889C57.501 85.5351 64.839 89.0054 70.4444 89.0054C72.1565 89.0054 73.7057 88.6834 75.051 88.0037C80.7786 85.1058 82.0628 76.0722 79.1072 64.731C91.7448 61.3143 100 55.8047 100 50.0089ZM73.4611 38.0774C72.7069 40.385 71.7693 42.7642 70.7093 45.1433C69.8736 43.7123 68.9971 42.2812 68.0391 40.8501C67.1015 39.4191 66.1027 38.0238 65.104 36.6643C67.9984 37.0399 70.7909 37.505 73.4611 38.0774ZM64.1256 57.1285C62.5357 59.5434 60.905 61.8331 59.2132 63.9618C56.1761 64.1944 53.0982 64.3196 50 64.3196C46.9221 64.3196 43.8443 64.1944 40.8276 63.9797C39.1358 61.851 37.4847 59.5792 35.8948 57.1821C34.3457 54.8388 32.9393 52.4596 31.6551 50.0626C32.9189 47.6656 34.3457 45.2685 35.8744 42.9252C37.4643 40.5102 39.095 38.2205 40.7868 36.0918C43.8239 35.8593 46.9018 35.7341 50 35.7341C53.0779 35.7341 56.1557 35.8593 59.1724 36.074C60.8642 38.2027 62.5153 40.4745 64.1052 42.8715C65.6543 45.2149 67.0607 47.594 68.3449 49.991C67.0607 52.3881 65.6543 54.7851 64.1256 57.1285ZM70.7093 54.803C71.81 57.2 72.7477 59.5971 73.5222 61.9225C70.852 62.495 68.0391 62.978 65.1243 63.3536C66.1231 61.9762 67.1219 60.563 68.0595 59.1141C68.9972 57.683 69.8736 56.2341 70.7093 54.803ZM50.0408 73.8898C48.1451 72.1725 46.2495 70.2585 44.3742 68.1656C46.2087 68.2371 48.084 68.2908 49.9796 68.2908C51.8956 68.2908 53.7913 68.255 55.6461 68.1656C53.8117 70.2585 51.916 72.1725 50.0408 73.8898ZM34.8757 63.3536C31.9812 62.978 29.1887 62.5129 26.5185 61.9404C27.2727 59.6328 28.2104 57.2537 29.2703 54.8746C30.106 56.3056 30.9825 57.7367 31.9405 59.1677C32.8985 60.5988 33.8769 61.9941 34.8757 63.3536ZM49.9389 26.1281C51.8345 27.8453 53.7301 29.7594 55.6054 31.8523C53.7709 31.7808 51.8956 31.7271 50 31.7271C48.084 31.7271 46.1883 31.7629 44.3335 31.8523C46.168 29.7594 48.0636 27.8453 49.9389 26.1281ZM34.8553 36.6643C33.8565 38.0417 32.8577 39.4548 31.9201 40.9038C30.9825 42.3349 30.106 43.7659 29.2703 45.197C28.1696 42.8 27.232 40.4029 26.4574 38.0774C29.1276 37.5229 31.9405 37.0399 34.8553 36.6643ZM16.4085 59.0604C9.19283 56.3593 4.52507 52.8174 4.52507 50.0089C4.52507 47.2005 9.19283 43.6407 16.4085 40.9575C18.1614 40.2956 20.0775 39.7053 22.0546 39.1507C23.2165 42.6568 24.7452 46.3061 26.6408 50.0447C24.7656 53.7655 23.2572 57.3968 22.1158 60.885C20.0978 60.3305 18.1818 59.7223 16.4085 59.0604ZM27.3746 84.6228C24.6025 83.2275 23.3999 77.9147 24.3375 71.0813C24.5618 69.3998 24.9287 67.6289 25.3771 65.8222C29.3722 66.6808 33.7342 67.3427 38.3204 67.772C41.0722 71.0813 43.9258 74.0866 46.7998 76.7162C40.1549 82.1363 33.9177 85.1058 29.6779 85.1058C28.7607 85.0879 27.9861 84.9269 27.3746 84.6228ZM75.7236 70.9919C76.6816 77.8252 75.4994 83.1381 72.7477 84.5512C72.1362 84.8732 71.3412 85.0163 70.4036 85.0163C66.1843 85.0163 59.9266 82.0648 53.2817 76.6804C56.1353 74.0508 58.989 71.0635 61.7 67.7541C66.3066 67.3248 70.6686 66.6629 74.6637 65.7864C75.1325 67.5931 75.4994 69.3283 75.7236 70.9919ZM83.5711 59.0604C81.8182 59.7223 79.9022 60.3126 77.925 60.8671C76.7631 57.361 75.2344 53.7118 73.3388 49.9732C75.214 46.2524 76.7224 42.6211 77.8638 39.1329C79.8818 39.6874 81.7978 40.2956 83.5915 40.9575C90.8072 43.6586 95.4749 47.2005 95.4749 50.0089C95.4545 52.8174 90.7868 56.3772 83.5711 59.0604Z" fill="#81D8F7"/>
<path d="M49.9796 58.1839C55.1242 58.1839 59.2947 54.5238 59.2947 50.0089C59.2947 45.494 55.1242 41.834 49.9796 41.834C44.835 41.834 40.6645 45.494 40.6645 50.0089C40.6645 54.5238 44.835 58.1839 49.9796 58.1839Z" fill="#81D8F7"/>
</svg>